<?xml version="1.0" encoding="UTF-8"?>
<!DOCTYPE svg PUBLIC "-//W3C//DTD SVG 1.1//EN" "http://www.w3.org/Graphics/SVG/1.1/DTD/svg11.dtd">
<!-- Creator: CorelDRAW (Evaluation Version) -->
<svg xmlns="http://www.w3.org/2000/svg" xml:space="preserve" width="169.333mm" height="169.333mm" version="1.1" style="shape-rendering:geometricPrecision; text-rendering:geometricPrecision; image-rendering:optimizeQuality; fill-rule:evenodd; clip-rule:evenodd"
viewBox="0 0 16933.32 16933.32"
 xmlns:xlink="http://www.w3.org/1999/xlink"
 xmlns:xodm="http://www.corel.com/coreldraw/odm/2003">
 <defs>
  <style type="text/css">
   <![CDATA[
    .fil1 {fill:#1D2925}
    .fil0 {fill:#DB9631}
   ]]>
  </style>
 </defs>
 <g id="Layer_x0020_1">
  <metadata id="CorelCorpID_0Corel-Layer"/>
  <path id="Shape_333_1" class="fil0" d="M3808.91 3847.25l0 3936.19 -2964.29 2928.88 0 -9840.44 8892.95 0c540.17,-0.09 1068.81,-19.61 1520.96,108.48 860.57,243.76 1337.92,572.25 1955.53,1038.29 218.95,165.25 397.13,426.27 558.7,650.85 332.37,461.97 547.85,906.96 744.9,1518.7 50.14,155.47 38.17,296.88 77.64,464.9 58.63,249.19 95.94,721.08 31.12,1007.29 -49.7,219.33 -21.17,405.03 -77.64,604.37 -170.41,601.75 -380.46,1128.95 -698.4,1580.68 -80.5,114.34 -196.18,215.1 -279.36,325.43 -198.79,263.6 -444.08,473.17 -713.93,666.36 -106.31,76.12 -207.25,204.71 -356.96,232.45l-1676.22 -1689.16c-125.88,-125.7 -553.56,-476.99 -605.27,-619.87 177.27,2.13 329,-11.6 465.59,-61.94 595.41,-219.69 1240.79,-957.9 946.73,-1844.12 -113.01,-340.5 -353.95,-647.3 -636.33,-821.34 -508.76,-313.54 -1439.54,-201.47 -2234.88,-201.44 -1650.37,0 -3324.08,13.88 -4950.84,15.44z" data-name="Shape 333 1"/>
  <g id="_1483966491184">
   <path id="Shape_332_2" class="fil1" d="M4542.4 8426.59c175.85,116.78 315.82,316.35 464.16,464.93l959.27 960.79 3047.99 3053.02 1191.36 1193.31c105.65,105.83 434.45,370.53 479.67,495.99l-3960.9 0c-727.11,-733.56 -1454.29,-1467.13 -2181.55,-2200.72l-15.47 0 0 15.5 -2707.61 2696.52 -680.76 681.92c-84.98,85.13 -174.08,235.51 -293.97,278.87l0 -3951.71c187.26,-124.21 337.14,-337.7 495.1,-495.92 350.7,-346.08 701.4,-692.2 1052.09,-1038.36l495.11 -511.36c377.33,-285.63 688.27,-673.91 1021.15,-1007.34 185.66,-186.01 494.13,-423.65 634.36,-635.44z" data-name="Shape 332 2"/>
   <path id="Shape_332_2_0" class="fil1" d="M16084.59 14594.69l-3465.73 0c-138.28,-209.01 -408.4,-409.09 -587.93,-588.97 -379.07,-379.69 -750.39,-767.13 -1129.46,-1146.82l-3527.68 -3548.94c-438.39,-439.1 -876.77,-878.2 -1315.14,-1317.29 -115.52,-115.67 -493.21,-423.93 -541.51,-557.89l1438.9 -1425.77c113.15,-113.35 409.72,-479.21 541.52,-526.92 52.68,79.6 134.81,135.03 201.13,201.46l464.16 464.91c464.17,464.92 928.33,929.84 1392.48,1394.77 1459.55,1461.93 2919.08,2923.85 4378.59,4385.76 716.85,712.8 1433.74,1425.68 2150.67,2138.65l0 526.99 0 0.06z" data-name="Shape 332 2"/>
  </g>
 </g>
</svg>
