<?xml version="1.0" encoding="UTF-8"?>
<!DOCTYPE svg PUBLIC "-//W3C//DTD SVG 1.1//EN" "http://www.w3.org/Graphics/SVG/1.1/DTD/svg11.dtd">
<!-- Creator: CorelDRAW (Evaluation Version) -->
<svg xmlns="http://www.w3.org/2000/svg" xml:space="preserve" width="270.933mm" height="81.809mm" version="1.1" style="shape-rendering:geometricPrecision; text-rendering:geometricPrecision; image-rendering:optimizeQuality; fill-rule:evenodd; clip-rule:evenodd"
viewBox="0 0 27093.32 8180.9"
 xmlns:xlink="http://www.w3.org/1999/xlink"
 xmlns:xodm="http://www.corel.com/coreldraw/odm/2003">
 <defs>
  <style type="text/css">
   <![CDATA[
    .fil0 {fill:#1D2925}
    .fil1 {fill:#DB9631}
   ]]>
  </style>
 </defs>
 <g id="Layer_x0020_1">
  <metadata id="CorelCorpID_0Corel-Layer"/>
  <path id="Shape_332_2" class="fil0" d="M2425.36 4079.87c75.08,49.85 134.83,135.06 198.16,198.49l409.54 410.19 1301.28 1303.42 508.62 509.46c45.11,45.19 185.49,158.19 204.79,211.76l-1691.02 -0.01c-310.43,-313.17 -620.88,-626.36 -931.37,-939.55l-6.6 0 0 6.62 -1155.96 1151.23 -290.64 291.12c-36.28,36.35 -74.32,100.55 -125.5,119.06l0 -1687.1c79.94,-53.03 143.93,-144.17 211.37,-211.72 149.72,-147.75 299.45,-295.52 449.17,-443.31l211.38 -218.31c161.09,-121.94 293.84,-287.71 435.95,-430.06 79.27,-79.41 210.96,-180.87 270.83,-271.29z" data-name="Shape 332 2"/>
  <path id="Shape_333_1" class="fil1" d="M2112.21 2124.82l0 1680.47 -1265.54 1250.43 0 -4201.18 3796.66 0c230.61,-0.03 456.31,-8.37 649.34,46.32 367.4,104.06 571.2,244.31 834.87,443.27 93.48,70.55 169.55,181.99 238.53,277.87 141.9,197.23 233.89,387.21 318.02,648.38 21.41,66.37 16.3,126.74 33.15,198.48 25.03,106.39 40.96,307.85 13.28,430.04 -21.21,93.64 -9.04,172.92 -33.14,258.02 -72.76,256.91 -162.43,481.98 -298.17,674.84 -34.37,48.82 -83.76,91.83 -119.27,138.93 -84.87,112.55 -189.59,202.02 -304.8,284.5 -45.38,32.49 -88.48,87.39 -152.39,99.23l-715.63 -721.15c-53.74,-53.66 -236.33,-203.64 -258.41,-264.64 75.68,0.91 140.46,-4.95 198.78,-26.44 254.2,-93.79 529.73,-408.96 404.18,-787.31 -48.24,-145.37 -151.11,-276.35 -271.66,-350.65 -217.21,-133.86 -614.59,-86.02 -954.14,-86.01 -704.59,0 -1419.15,5.93 -2113.66,6.6z" data-name="Shape 333 1"/>
  <path id="Shape_332_2_0" class="fil0" d="M7353.06 6713.21l-1479.62 0c-59.04,-89.23 -174.36,-174.65 -251.01,-251.45 -161.83,-162.1 -320.36,-327.51 -482.2,-489.61l-1506.07 -1515.14c-187.16,-187.47 -374.32,-374.93 -561.47,-562.4 -49.32,-49.38 -210.56,-180.98 -231.19,-238.17l614.31 -608.71c48.31,-48.39 174.93,-204.59 231.19,-224.95 22.49,33.98 57.56,57.64 85.87,86.01l198.17 198.48c198.16,198.49 396.33,396.98 594.49,595.47 623.12,624.14 1246.24,1248.28 1869.34,1872.4 306.05,304.32 612.11,608.67 918.19,913.06l0 224.98 0 0.03z" data-name="Shape 332 2"/>
  <path class="fil0" d="M18831.07 1800.22l-770.32 0 0 1311.28 333.99 -329.15 322.53 329.26 -656.52 650.91 0 927.18 813.68 0 0 458.05 -1277.19 0 0 -3800.12 1277.19 0 0 452.59 -43.36 0zm-2594.26 279.46l0 3068.07 -479.9 0 0 -3805.59 455.78 0.01 472.58 525.62 0 -520.16 479.9 0 0 3800.12 -479.9 0 0 -2587.57 -448.46 -480.5zm-2249.56 -732.05l431.08 0 0 2981.32c0,85.85 3.93,156.92 11.78,213.19 7.47,53.57 18.12,93.03 31.95,118.37 11.7,21.46 29.96,37.72 54.76,48.78 27.85,12.42 64.3,18.63 109.36,18.63 85.8,0 142.67,-23.03 170.59,-69.1 15.25,-25.16 27.44,-64.5 36.57,-118.03 9.69,-56.86 15.43,-127.48 17.22,-211.84l-0.16 0 0 -2981.32 463.52 0 0 3188.83c0,69.63 -11.54,142.92 -34.63,219.88 -23.44,78.13 -61.48,150.34 -114.11,216.61 -26.75,33.69 -58.19,64.39 -94.32,92.1 -35.35,27.13 -75.44,51.41 -120.24,72.84 -45.48,21.75 -95.35,37.95 -149.59,48.6 -53.84,10.58 -112.13,15.87 -174.85,15.87 -67.83,0 -129.88,-5.29 -186.12,-15.87 -56.92,-10.7 -107.69,-26.96 -152.31,-48.77 -43.76,-21.39 -82.88,-45.45 -117.36,-72.15 -35.3,-27.35 -65.83,-57.37 -91.58,-90.06 -25.47,-32.33 -47.14,-66.84 -64.98,-103.52 -17.64,-36.26 -31.4,-74.64 -41.27,-115.12 -9.44,-38.67 -16.55,-76.44 -21.33,-113.28 -4.89,-37.66 -7.34,-73.37 -7.34,-107.13l0 -3188.83 43.36 0zm-1578.2 -10.93l1310.28 0 0 463.52 -420.48 0 0 3347.53 -474.44 0 0 -3347.53 -458.72 0 0 -463.52 43.36 0zm-709.59 2479.6l-231.3 -245.17 -195.31 186.44 0 1390.18 -468.98 0c0,-1266.71 -0.07,-2533.42 0,-3800.12l687.74 0c90.41,0 176.45,9.49 258.13,28.49 42.08,9.79 81.7,23.6 118.88,41.44 37.33,17.92 71.84,39.75 103.52,65.49 32.01,26.01 60.83,57.11 86.46,93.28 25.19,35.58 47.03,75.72 65.49,120.42 18.57,44.95 32.44,96.41 41.62,154.37 9.1,57.46 13.65,120.7 13.65,189.71l0 831.63 -375.74 375.73 375.74 386.17 0 1513.39 -479.9 0 0 -1331.45zm-415.69 -684.2l443 -442.99 0 -588.21c0,-72.23 -6.55,-128.82 -19.65,-169.73 -6.31,-19.73 -13.71,-36.93 -22.21,-51.6 -7.84,-13.55 -16.57,-24.78 -26.17,-33.7 -9.83,-9.13 -20.5,-16.66 -31.99,-22.58 -11.55,-5.95 -24.05,-10.35 -37.45,-13.17 -15.91,-3.34 -31.97,-5.85 -48.16,-7.51 -15.54,-1.59 -32.05,-2.39 -49.53,-2.39l-207.84 0 0 1331.88zm-911.97 -1746.58l0 414.7 -305.15 0 299.47 247.38 5.5 2368.72 0.18 0c0,135.3 -14.73,251.66 -44.19,349.06 -30.31,100.21 -76.36,180.72 -138.14,241.5 -121.35,119.4 -286.19,179.1 -494.49,179.1 -44.07,0 -87.46,-3.64 -130.16,-10.92 -42.68,-7.28 -84.25,-18.14 -124.69,-32.58 -40.88,-14.6 -79.88,-33.14 -117.01,-55.61 -36.97,-22.37 -72,-48.64 -105.07,-78.8 -33.41,-30.46 -63.49,-65.99 -90.22,-106.59 -26.41,-40.1 -49.21,-84.63 -68.4,-133.56 -19.27,-49.14 -33.72,-103.28 -43.33,-162.4 -9.55,-58.75 -14.33,-121.82 -14.33,-189.2l0 -2385.08 282.37 -231.02 -287.83 0 0 -458.05 1375.49 0 0 43.35zm-873.75 3030.8c0,117.73 17.95,200 53.82,246.79 16.56,21.59 36.4,37.73 59.52,48.4 23.7,10.94 51.57,16.41 83.59,16.41 31.68,0 58.01,-5.24 78.99,-15.73 19.75,-9.87 35.67,-24.89 47.75,-45.01 13.71,-22.86 24.19,-54.42 31.44,-94.66 7.62,-42.37 11.44,-94.43 11.44,-156.2l0.17 0 -5.42 -2169.79 -184.71 -157.68c-3.22,2.4 -6.75,5.08 -10.58,8.03 -12,9.23 -23.96,18.74 -35.86,28.52 -11.95,9.81 -24.87,20.73 -38.73,32.76 -14.98,12.97 -28.01,24.41 -39.09,34.31 -9.88,8.82 -22.02,19.88 -36.35,33.1l-21.57 19.91 5.42 2170.84 0.17 0zm-1556.36 -1304.82l333.99 -329.15 322.54 329.26 -656.53 650.91 0 1385.23 -463.51 0 0 -3805.58 1277.19 0 0 458.05 -813.68 0 0 1311.28z"/>
  <path class="fil1" d="M25821.03 4056.23l425.62 0 0 1091.52 -1249.88 0 0 -1535.75 737.22 -737.22 0 -1074.56 -301.01 0 0 660.76 -463.52 0 0 -1113.35 1222.58 0 0 1688.38 -731.76 737.23 0 916.46 317.39 0 0 -633.47 43.36 0zm-2037.25 -2665.25l0 1330.79 218.12 213.58 208.5 -213.03 0 -1374.69 463.51 0 0 1535.26 -431.41 442.34 0 1822.52 -468.98 0 0 -1821.9 -458.71 -447.79c0.07,-510.15 0,-1020.29 0,-1530.43l468.97 0 0 43.35zm-1189.65 3042.47l-273.19 273.18 -279.21 -274.32 -86.88 715.44 -464.13 0 409.57 -3347.53 -272.9 0 0 -458.05 1380.95 0 0 458.05 -272.82 0 425.95 3347.53 -480.6 0 -86.74 -714.3zm-479.13 -551.78l205.59 201.13 205.6 -201.13 -205.6 -1676.05 -205.59 1676.05zm-1312.21 -65.37l-231.3 -245.17 -195.31 186.44 0 1390.18 -468.98 0 0 -3800.12 687.74 0c90.4,0 176.45,9.49 258.13,28.49 42.08,9.79 81.7,23.6 118.87,41.44 37.34,17.92 71.85,39.75 103.53,65.49 32.01,26.01 60.83,57.11 86.45,93.28 25.2,35.58 47.04,75.72 65.5,120.42 18.57,44.95 32.44,96.41 41.62,154.37 9.09,57.46 13.65,120.7 13.65,189.71l0 831.63 -375.74 375.73 375.74 386.17 0 1513.39 -479.9 0 0 -1331.45zm-415.69 -684.2l442.99 -442.99 0 -588.21c0,-72.23 -6.54,-128.82 -19.64,-169.73 -6.31,-19.73 -13.71,-36.93 -22.21,-51.6 -7.84,-13.55 -16.57,-24.78 -26.17,-33.7 -9.84,-9.13 -20.5,-16.66 -31.98,-22.58 -11.57,-5.95 -24.06,-10.35 -37.46,-13.17 -15.91,-3.35 -31.97,-5.85 -48.16,-7.51 -15.54,-1.59 -32.05,-2.39 -49.53,-2.39l-207.84 0 0 1331.88z"/>
  <polygon id="Shape_333_1_1" class="fil1" points="24249.7,6121.72 26246.65,6121.72 26246.65,6540.38 24249.7,6540.38 24249.7,6121.72 " data-name="Shape 333 1"/>
  <polygon id="Shape_333_1_2" class="fil1" points="7478.18,6121.72 15579.69,6121.72 15579.69,6540.38 7478.18,6540.38 7478.18,6121.72 " data-name="Shape 333 1"/>
  <path id="Shape_332_2_3" class="fil0" d="M22995.24 6205.23l0 205.8 -538.48 0 0 191.62 616.38 0 0 205.79 -814.72 0c-14.64,-44.26 -7.06,-121.23 -7.06,-177.42l0 -418.68c61.02,-20.19 166.75,-7.09 240.89,-7.09l502.99 0 0 -0.02zm-5306.4 205.8l-538.42 0 0 191.62 616.32 0 0 198.67c-66.62,22.03 -181.98,7.13 -262.12,7.13l-559.66 -0.01 0 -596.1c61.01,-20.19 166.75,-7.09 240.88,-7.09l495.88 0c17.21,51.12 7.71,142.07 7.12,205.79l0 -0.01zm5384.3 -596.09l0 198.7c-66.62,22.04 -182.05,7.1 -262.12,7.1l-552.6 0c-16.62,-49.27 -7.65,-136.97 -7.06,-198.71 66.62,-22.04 181.98,-7.09 262.12,-7.09l559.66 0zm-1877.44 0l446.34 0c97.88,0 206.78,-8.22 276.3,21.29 62.79,26.65 103.03,75.33 134.62,134.82 23.75,44.71 64.38,118.48 42.54,205.79 -11.5,43.21 -30.77,84.18 -56.71,120.64 -33.45,45.92 -119.06,94.67 -177.1,113.54 -26.39,8.57 -63.79,1.24 -85.03,14.19 95.25,62.56 187.39,187.72 269.24,269.64 35.29,35.36 95.38,70.32 113.32,120.64l-283.36 0.01c-22.16,-33.97 -52.83,-53.69 -85.02,-78.03 -63.91,-48.34 -133.89,-134.22 -198.4,-191.61 -40.1,-42.58 -80.25,-85.16 -120.44,-127.74l-77.9 0 0 397.38 -198.4 0 0 -1000.59 0 0.03zm198.4 205.79l0 191.59c148.67,1.11 335.34,14.52 460.52,-14.18 156.53,-239.11 -267.65,-181.7 -460.52,-177.4l0 -0.01zm-2394.61 -205.79l1041.42 0 0 198.7c-93.53,31.17 -304.4,7.66 -417.98,7.1l0 787.72 -205.46 0 0 -787.72 -410.92 0c-17.21,-51.13 -7.65,-142.07 -7.06,-205.79l0 -0.01zm-297.53 0l205.45 0 0 986.39c-62.26,20.98 -172.41,7.72 -248,7.13 -25.85,-73.88 -137.32,-150.78 -184.15,-212.92 -87.27,-115.6 -197.48,-212.52 -283.42,-326.43 -39.32,-52.11 -80.08,-120.1 -134.62,-156.12l0 695.47 -198.34 0 0 -986.42 14.18 0c37.07,-23.84 152.43,-8.04 205.46,-7.09 24.67,37.98 65.63,64.33 92.08,99.34 100.19,132.81 227.75,246.03 325.9,376.11 48.02,63.67 143.85,199.59 205.46,241.28l0 -716.73 0 -0.01zm5412.66 198.7c-205.2,-1.05 -536.11,-28.96 -708.46,14.19 -19.85,33.46 -34.89,50.13 -35.42,106.44 7.78,9.83 10.56,20.39 14.12,35.49l42.54 35.48c199,-2.69 466.32,-25.91 588.02,56.77 66.35,45.1 71.23,118.4 92.08,212.89 8.77,39.79 8.17,101.23 -7.06,141.94 -31.2,83.24 -118.2,165.03 -205.46,191.61 -64.91,19.72 -164.17,7.05 -240.88,7.05l-488.82 0 0 -205.78 531.29 0c85.49,0 175.91,4.81 205.47,-49.66 18.66,-34.3 -0.14,-77.32 -7.06,-106.45 -224.79,-128.5 -597.65,70.79 -708.46,-198.69 -7.12,-33.12 -14.2,-66.24 -21.24,-99.36 -29.28,-183.47 98.08,-298.6 212.52,-340.62 58.9,-21.62 162.06,-7.1 233.75,-7.1l495.94 0c17.22,51.14 7.66,142.09 7.13,205.81l0 -0.01zm-3981.57 -205.79l198.34 0c16.49,49.84 7.12,136.49 7.12,198.7l0 411.58c44.99,65.42 48.94,125.48 113.31,170.31 33.05,16.53 66.12,33.1 99.21,49.71 101.9,30.93 180.86,-17.81 233.75,-56.81 163.98,-120.79 116.88,-485.3 113.39,-766.4 51.05,-17.24 141.87,-7.67 205.46,-7.1 1.91,191.5 30.93,573.62 -21.24,716.73 -39.91,109.49 -115.1,181.05 -205.46,241.27 -69.19,46.1 -185.81,117.21 -325.91,85.15 -475.68,-108.82 -422.32,-475.82 -417.97,-1043.14zm-4357.06 0l212.51 0 0 652.86 7.13 0c34.89,-52.86 98.34,-96.69 148.73,-134.82l77.96 -85.16c103.82,-78.54 186.67,-176.92 290.49,-255.47 39.77,-30.09 103.94,-97.33 141.68,-134.83l35.41 -42.58 318.78 0c39.9,24.86 156.71,7.1 212.58,7.1l545.48 0 0 198.7c-66.62,22.04 -181.98,7.09 -262.12,7.09l-552.6 0c-11.74,-34.53 -7.65,-95.96 -7.06,-141.92l-7.12 0c-47.49,71.72 -197.21,193.91 -269.17,248.37 -28.37,30.75 -56.71,61.5 -85.03,92.25 -142.27,107.62 -254.46,247.16 -396.73,354.81 -23.62,26.04 -47.23,52.07 -70.84,78.08 -37.21,28.1 -71.64,54.28 -106.33,85.16 -21.83,19.45 -42.87,59.62 -70.84,70.97l-162.91 0 0 -1000.59 0 -0.02z" data-name="Shape 332 2"/>
 </g>
</svg>
